<svg width="32" height="32" viewBox="0 0 32 32" fill="none" xmlns="http://www.w3.org/2000/svg">
  <rect width="32" height="32" rx="8" fill="#0EA5E9"/>
  <path d="M16 8C10.477 8 6 12.477 6 18C6 23.523 10.477 28 16 28C21.523 28 26 23.523 26 18C26 12.477 21.523 8 16 8ZM16 10C20.418 10 24 13.582 24 18C24 22.418 20.418 26 16 26C11.582 26 8 22.418 8 18C8 13.582 11.582 10 16 10Z" fill="white"/>
  <circle cx="12" cy="14" r="2" fill="white"/>
  <circle cx="20" cy="14" r="2" fill="white"/>
  <circle cx="12" cy="22" r="2" fill="white"/>
  <circle cx="20" cy="22" r="2" fill="white"/>
  <path d="M12 16L20 16" stroke="white" stroke-width="2"/>
  <path d="M12 20L20 20" stroke="white" stroke-width="2"/>
  <path d="M14 12L14 24" stroke="white" stroke-width="2"/>
  <path d="M18 12L18 24" stroke="white" stroke-width="2"/>
</svg>
